<svg width="518" height="120" viewBox="0 0 518 120" fill="none" xmlns="http://www.w3.org/2000/svg">
<path d="M203.46 59.7273L201.648 70.8068H176.08L177.891 59.7273H203.46ZM255.728 46.0909L235.167 87H218.121L211.197 46.0909H226.111L228.242 73.1506H228.668L239.748 46.0909H255.728ZM271.342 87.7457C266.974 87.7457 263.352 86.9112 260.475 85.2422C257.599 83.5554 255.575 81.1406 254.403 77.9979C253.231 74.8374 253.018 71.0554 253.764 66.652C254.474 62.4261 255.939 58.733 258.158 55.5724C260.395 52.4119 263.21 49.9528 266.601 48.195C270.01 46.4371 273.828 45.5582 278.053 45.5582C281.143 45.5582 283.851 46.0376 286.177 46.9964C288.52 47.9553 290.429 49.3491 291.903 51.1779C293.377 53.0067 294.371 55.2173 294.886 57.8097C295.418 60.3842 295.418 63.2962 294.886 66.5455L294.353 69.9545H257.812L259.09 61.858H282.102C282.279 60.6861 282.164 59.6562 281.755 58.7685C281.365 57.8629 280.734 57.1616 279.864 56.6644C279.012 56.1495 277.982 55.892 276.775 55.892C275.568 55.892 274.431 56.1495 273.366 56.6644C272.318 57.1793 271.422 57.8984 270.676 58.8217C269.948 59.745 269.46 60.8281 269.211 62.071L267.613 70.5938C267.4 71.9077 267.48 73.0795 267.853 74.1094C268.226 75.1392 268.874 75.9471 269.797 76.533C270.72 77.119 271.91 77.4119 273.366 77.4119C274.36 77.4119 275.301 77.2788 276.189 77.0124C277.095 76.7283 277.894 76.32 278.586 75.7873C279.296 75.2369 279.864 74.571 280.291 73.7898H293.714C292.755 76.6307 291.237 79.0987 289.16 81.1939C287.1 83.2713 284.561 84.8871 281.542 86.0412C278.542 87.1776 275.141 87.7457 271.342 87.7457ZM316.119 63.9886L312.284 87H297.582L304.401 46.0909H318.357L317.078 53.8679H317.504C318.8 51.2578 320.691 49.2248 323.177 47.7688C325.681 46.2951 328.442 45.5582 331.46 45.5582C334.354 45.5582 336.76 46.2152 338.678 47.5291C340.596 48.843 341.954 50.6541 342.753 52.9624C343.552 55.2706 343.694 57.9162 343.179 60.8991L338.811 87H324.109L327.945 63.9886C328.282 61.9645 328.033 60.3754 327.199 59.2212C326.382 58.0671 325.033 57.4901 323.151 57.4901C321.961 57.4901 320.869 57.7564 319.875 58.2891C318.898 58.804 318.081 59.5497 317.424 60.5263C316.785 61.4851 316.35 62.6392 316.119 63.9886ZM377.177 46.0909L375.366 56.7443H348.412L350.224 46.0909H377.177ZM357.042 36.2898H371.743L365.511 73.843C365.422 74.4112 365.44 74.8906 365.564 75.2812C365.689 75.6541 365.937 75.9382 366.31 76.1335C366.701 76.3111 367.216 76.3999 367.855 76.3999C368.281 76.3999 368.805 76.3466 369.426 76.2401C370.048 76.1158 370.518 76.027 370.838 75.9737L371.264 86.3075C370.518 86.5206 369.515 86.7603 368.254 87.0266C367.012 87.3107 365.564 87.4972 363.913 87.5859C360.469 87.7457 357.663 87.3817 355.497 86.494C353.349 85.6062 351.857 84.2212 351.023 82.3391C350.206 80.4393 350.064 78.0689 350.596 75.228L357.042 36.2898ZM417.786 59.4077H404.576C404.647 58.5554 404.496 57.8274 404.123 57.2237C403.75 56.62 403.226 56.1584 402.552 55.8388C401.895 55.5192 401.149 55.3594 400.315 55.3594C398.859 55.3594 397.536 55.6879 396.346 56.3448C395.157 56.984 394.491 57.8274 394.349 58.875C394.26 59.2834 394.393 59.6651 394.748 60.0202C395.103 60.3754 396.035 60.7038 397.545 61.0057L405.641 62.4972C409.69 63.2429 412.637 64.6012 414.484 66.5721C416.348 68.5252 417.023 71.1087 416.508 74.3224C416.028 77.1101 414.803 79.5071 412.832 81.5135C410.861 83.5199 408.358 85.0646 405.322 86.1477C402.303 87.2131 398.965 87.7457 395.307 87.7457C388.862 87.7457 384.033 86.4585 380.819 83.8839C377.623 81.3093 376.167 77.9446 376.451 73.7898H390.726C390.762 75.1214 391.206 76.1246 392.058 76.7994C392.928 77.4563 394.082 77.8026 395.521 77.8381C397.083 77.8913 398.45 77.5806 399.622 76.9059C400.794 76.2134 401.451 75.3523 401.593 74.3224C401.646 73.7365 401.389 73.2926 400.821 72.9908C400.27 72.6889 399.214 72.3871 397.651 72.0852L390.62 70.8068C386.572 70.0788 383.624 68.6229 381.778 66.4389C379.931 64.2372 379.292 61.4318 379.86 58.0227C380.322 55.3061 381.422 53.0245 383.163 51.1779C384.92 49.3313 387.229 47.9375 390.087 46.9964C392.946 46.0376 396.248 45.5582 399.995 45.5582C406.121 45.5582 410.755 46.7923 413.898 49.2603C417.058 51.7106 418.354 55.093 417.786 59.4077Z" fill="black"/>
<path d="M207.361 101.915H419.704V107.028H207.361V101.915Z" fill="black"/>
<path d="M136.769 87.8697C132.467 88.6281 128.755 88.4353 125.633 87.2911C122.507 86.1294 120.094 84.1028 118.394 81.2113C116.691 78.3023 115.825 74.6148 115.795 70.1488C115.76 65.8638 116.562 61.9724 118.198 58.4745C119.853 54.9735 122.197 52.063 125.232 49.743C128.284 47.4199 131.891 45.8914 136.053 45.1576C139.095 44.6211 141.845 44.6231 144.302 45.1634C146.777 45.7007 148.899 46.7419 150.667 48.287C152.436 49.8321 153.799 51.8365 154.757 54.3C155.728 56.743 156.234 59.6107 156.274 62.9031L156.341 66.3529L120.355 72.6982L120.208 64.5026L142.87 60.5067C142.841 59.3218 142.549 58.3277 141.992 57.5243C141.45 56.7004 140.708 56.1191 139.765 55.7806C138.836 55.4215 137.777 55.3468 136.588 55.5564C135.399 55.7661 134.325 56.217 133.365 56.9091C132.423 57.5981 131.664 58.4619 131.09 59.5007C130.534 60.5364 130.241 61.6878 130.212 62.955L130.118 71.6257C130.137 72.9567 130.419 74.0969 130.965 75.0463C131.511 75.9958 132.289 76.6788 133.3 77.0955C134.311 77.5123 135.534 77.5942 136.968 77.3414C137.947 77.1687 138.85 76.8742 139.678 76.4577C140.521 76.0207 141.237 75.4798 141.826 74.8349C142.43 74.1695 142.874 73.4152 143.158 72.5718L156.377 70.2408C155.927 73.2051 154.86 75.8992 153.178 78.3233C151.51 80.7268 149.291 82.759 146.518 84.4197C143.761 86.0599 140.511 87.2099 136.769 87.8697Z" fill="url(#paint0_linear_1_2)"/>
<defs>
<linearGradient id="paint0_linear_1_2" x1="117.5" y1="75.5" x2="156" y2="65.5" gradientUnits="userSpaceOnUse">
<stop stop-color="#E9B225"/>
<stop offset="1" stop-color="#F1DC22"/>
</linearGradient>
</defs>
</svg>
